<svg width="60" height="60" viewBox="0 0 60 60" fill="none" xmlns="http://www.w3.org/2000/svg">
<g clip-path="url(#clip0_16_422)">
<path d="M51.5138 46.6101C50.497 46.6108 49.5029 46.31 48.6571 45.7457C47.8113 45.1813 47.152 44.3788 46.7623 43.4397C46.3727 42.5005 46.2704 41.4669 46.4683 40.4696C46.6662 39.4723 47.1555 38.5561 47.8742 37.8369C48.5928 37.1177 49.5087 36.6278 50.5059 36.4291C51.503 36.2305 52.5367 36.3321 53.4761 36.721C54.4156 37.1099 55.2185 37.7687 55.7835 38.6141C56.3485 39.4594 56.65 40.4533 56.65 41.4701C56.6493 42.8324 56.1081 44.1389 55.1451 45.1026C54.1821 46.0662 52.8761 46.6084 51.5138 46.6101ZM51.5138 38.2051C50.8678 38.2043 50.2362 38.3952 49.6988 38.7535C49.1614 39.1118 48.7423 39.6215 48.4946 40.218C48.2469 40.8146 48.1817 41.4712 48.3073 42.1047C48.4328 42.7383 48.7435 43.3205 49.2 43.7775C49.6564 44.2344 50.2382 44.5458 50.8717 44.6721C51.5051 44.7984 52.1618 44.7339 52.7586 44.4869C53.3554 44.2399 53.8656 43.8214 54.2245 43.2844C54.5834 42.7474 54.775 42.116 54.775 41.4701C54.7747 40.6049 54.4311 39.7752 53.8197 39.1631C53.2082 38.5509 52.3789 38.2064 51.5138 38.2051ZM24.4275 46.6101C23.4107 46.6111 22.4164 46.3105 21.5705 45.7463C20.7246 45.1821 20.065 44.3797 19.6752 43.4405C19.2854 42.5014 19.1829 41.4678 19.3807 40.4704C19.5784 39.473 20.0676 38.5567 20.7862 37.8373C21.5048 37.118 22.4207 36.6279 23.4179 36.4292C24.4151 36.2305 25.4488 36.332 26.3883 36.7209C27.3278 37.1097 28.1309 37.7686 28.6959 38.6139C29.2609 39.4593 29.5625 40.4533 29.5625 41.4701C29.5615 42.8321 29.0203 44.1382 28.0577 45.1017C27.0951 46.0653 25.7895 46.6078 24.4275 46.6101ZM24.4275 38.2051C23.7815 38.2041 23.1498 38.3947 22.6122 38.7529C22.0746 39.1111 21.6554 39.6206 21.4075 40.2171C21.1596 40.8137 21.0942 41.4703 21.2196 42.104C21.345 42.7377 21.6556 43.3199 22.112 43.777C22.5685 44.2341 23.1502 44.5456 23.7837 44.672C24.4172 44.7984 25.0739 44.734 25.6708 44.487C26.2677 44.24 26.7779 43.8216 27.1369 43.2845C27.4959 42.7475 27.6875 42.116 27.6875 41.4701C27.6868 40.6052 27.3433 39.7759 26.7322 39.1639C26.1212 38.5519 25.2924 38.2071 24.4275 38.2051Z" fill="#8C8278"/>
<path d="M58.2762 42.4076H55.7125C55.4638 42.4076 55.2254 42.3089 55.0496 42.133C54.8738 41.9572 54.775 41.7188 54.775 41.4701C54.775 41.2215 54.8738 40.983 55.0496 40.8072C55.2254 40.6314 55.4638 40.5326 55.7125 40.5326H58.0112V35.5614C58.0106 34.8893 57.8385 34.2284 57.5112 33.6414L52.4362 24.5426C52.3929 24.465 52.3296 24.4003 52.2529 24.3552C52.1762 24.3102 52.0889 24.2864 52 24.2864H45.0837V40.5364H47.3162C47.5649 40.5364 47.8033 40.6351 47.9792 40.811C48.155 40.9868 48.2537 41.2252 48.2537 41.4739C48.2537 41.7225 48.155 41.961 47.9792 42.1368C47.8033 42.3126 47.5649 42.4114 47.3162 42.4114H44.1462C43.8976 42.4114 43.6591 42.3126 43.4833 42.1368C43.3075 41.961 43.2087 41.7225 43.2087 41.4739V23.3489C43.2087 23.1002 43.3075 22.8618 43.4833 22.686C43.6591 22.5101 43.8976 22.4114 44.1462 22.4114H52C52.4229 22.4112 52.8383 22.5239 53.2031 22.738C53.5678 22.952 53.8689 23.2596 54.075 23.6289L59.1487 32.7289C59.6311 33.595 59.8845 34.57 59.885 35.5614V40.7989C59.8843 41.2253 59.7146 41.6341 59.4131 41.9357C59.1115 42.2373 58.7027 42.407 58.2762 42.4076ZM20.2287 42.4076H11.24C10.9913 42.4076 10.7529 42.3089 10.5771 42.133C10.4013 41.9572 10.3025 41.7188 10.3025 41.4701V34.2601C10.3025 34.0115 10.4013 33.773 10.5771 33.5972C10.7529 33.4214 10.9913 33.3226 11.24 33.3226C11.4886 33.3226 11.7271 33.4214 11.9029 33.5972C12.0787 33.773 12.1775 34.0115 12.1775 34.2601V40.5326H20.2287C20.4774 40.5326 20.7158 40.6314 20.8917 40.8072C21.0675 40.983 21.1662 41.2215 21.1662 41.4701C21.1662 41.7188 21.0675 41.9572 20.8917 42.133C20.7158 42.3089 20.4774 42.4076 20.2287 42.4076ZM11.24 30.9339C10.9913 30.9339 10.7529 30.8351 10.5771 30.6593C10.4013 30.4835 10.3025 30.245 10.3025 29.9964V23.7014C10.3025 23.4527 10.4013 23.2143 10.5771 23.0385C10.7529 22.8626 10.9913 22.7639 11.24 22.7639C11.4886 22.7639 11.7271 22.8626 11.9029 23.0385C12.0787 23.2143 12.1775 23.4527 12.1775 23.7014V30.0001C12.1765 30.2481 12.0773 30.4856 11.9016 30.6606C11.7259 30.8356 11.488 30.9339 11.24 30.9339Z" fill="#8C8278"/>
<path d="M44.1463 42.4076H28.625C28.3764 42.4076 28.1379 42.3088 27.9621 42.133C27.7863 41.9572 27.6875 41.7187 27.6875 41.4701C27.6875 41.2215 27.7863 40.983 27.9621 40.8072C28.1379 40.6314 28.3764 40.5326 28.625 40.5326H43.2088V16.0063H12.1775V19.8676C12.1775 20.1162 12.0787 20.3547 11.9029 20.5305C11.7271 20.7063 11.4886 20.8051 11.24 20.8051C10.9914 20.8051 10.7529 20.7063 10.5771 20.5305C10.4013 20.3547 10.3025 20.1162 10.3025 19.8676V15.8338C10.3032 15.3823 10.4829 14.9495 10.8023 14.6303C11.1217 14.3111 11.5547 14.1317 12.0063 14.1313H43.3813C43.8326 14.132 44.2652 14.3116 44.5844 14.6307C44.9035 14.9499 45.0831 15.3825 45.0838 15.8338V41.4701C45.0838 41.7187 44.985 41.9572 44.8092 42.133C44.6333 42.3088 44.3949 42.4076 44.1463 42.4076ZM14.9463 35.1976H3.0475C2.79886 35.1976 2.5604 35.0988 2.38459 34.923C2.20877 34.7472 2.11 34.5087 2.11 34.2601C2.11 34.0115 2.20877 33.773 2.38459 33.5972C2.5604 33.4214 2.79886 33.3226 3.0475 33.3226H14.9463C15.1949 33.3226 15.4333 33.4214 15.6092 33.5972C15.785 33.773 15.8838 34.0115 15.8838 34.2601C15.8838 34.5087 15.785 34.7472 15.6092 34.923C15.4333 35.0988 15.1949 35.1976 14.9463 35.1976Z" fill="#8C8278"/>
<path d="M24.4275 30.9339H7.82375C7.57511 30.9339 7.33665 30.8352 7.16083 30.6593C6.98502 30.4835 6.88625 30.2451 6.88625 29.9964C6.88625 29.7478 6.98502 29.5093 7.16083 29.3335C7.33665 29.1577 7.57511 29.0589 7.82375 29.0589H24.4275C24.6761 29.0589 24.9146 29.1577 25.0904 29.3335C25.2662 29.5093 25.365 29.7478 25.365 29.9964C25.365 30.2451 25.2662 30.4835 25.0904 30.6593C24.9146 30.8352 24.6761 30.9339 24.4275 30.9339ZM7.3075 25.9839H0.823746C0.575105 25.9839 0.336648 25.8852 0.160833 25.7093C-0.0149822 25.5335 -0.113754 25.2951 -0.113754 25.0464C-0.113754 24.7978 -0.0149822 24.5593 0.160833 24.3835C0.336648 24.2077 0.575105 24.1089 0.823746 24.1089H7.3075C7.55614 24.1089 7.79459 24.2077 7.97041 24.3835C8.14622 24.5593 8.245 24.7978 8.245 25.0464C8.245 25.2951 8.14622 25.5335 7.97041 25.7093C7.79459 25.8852 7.55614 25.9839 7.3075 25.9839ZM17.7037 20.8052H6.25875C6.01011 20.8052 5.77165 20.7064 5.59583 20.5306C5.42002 20.3548 5.32125 20.1163 5.32125 19.8677C5.32125 19.619 5.42002 19.3806 5.59583 19.2048C5.77165 19.0289 6.01011 18.9302 6.25875 18.9302H17.7037C17.9524 18.9302 18.1908 19.0289 18.3667 19.2048C18.5425 19.3806 18.6412 19.619 18.6412 19.8677C18.6412 20.1163 18.5425 20.3548 18.3667 20.5306C18.1908 20.7064 17.9524 20.8052 17.7037 20.8052Z" fill="#8C8278"/>
</g>
<defs>
<clipPath id="clip0_16_422">
<rect width="60" height="60" fill="white"/>
</clipPath>
</defs>
</svg>
